<svg xmlns="http://www.w3.org/2000/svg" width="60.7" height="40.7" viewBox="0 0 60.7 40.7">
  <path id="Union_1" data-name="Union 1" d="M1529.71-670.3a5.465,5.465,0,0,1-5.392-5.468,5.454,5.454,0,0,1,5.392-5.468h.034a5.3,5.3,0,0,1,2.918.877v-.6h2.492v10.351h-2.492v-.567a5.3,5.3,0,0,1-2.918.877Zm-2.952-5.468a2.994,2.994,0,0,0,2.952,3.009h.034a3.019,3.019,0,0,0,2.918-2.442v-1.135a2.975,2.975,0,0,0-2.918-2.424h-.034A2.979,2.979,0,0,0,1526.758-675.768ZM1518-670.3a5.465,5.465,0,0,1-5.392-5.468,5.454,5.454,0,0,1,5.392-5.468h.034a5.348,5.348,0,0,1,2.918.877v-4.161h2.491v13.911h-2.491v-.567a5.3,5.3,0,0,1-2.918.877Zm-2.952-5.468a2.994,2.994,0,0,0,2.952,3.009h.034a3.019,3.019,0,0,0,2.918-2.442v-1.135a2.976,2.976,0,0,0-2.918-2.424H1518A2.979,2.979,0,0,0,1515.051-675.768ZM1502.2-670.3a5.465,5.465,0,0,1-5.392-5.468,5.454,5.454,0,0,1,5.392-5.468h.034a5.4,5.4,0,0,1,2.935.877v-4.161h2.492v13.911h-2.492v-.567a5.4,5.4,0,0,1-2.935.877Zm-2.952-5.468a2.994,2.994,0,0,0,2.952,3.009h.034a3.023,3.023,0,0,0,2.935-2.442v-1.135a3.008,3.008,0,0,0-2.935-2.424h-.034A2.979,2.979,0,0,0,1499.249-675.768Zm-8.857,5.468a5.465,5.465,0,0,1-5.392-5.468,5.451,5.451,0,0,1,5.375-5.468h.034a5.4,5.4,0,0,1,2.935.877v-.6h2.509v10.351h-2.492v-.567a5.4,5.4,0,0,1-2.935.877Zm-2.969-5.468a3.005,3.005,0,0,0,2.952,3.009h.034a3.023,3.023,0,0,0,2.935-2.442v-1.135a3.008,3.008,0,0,0-2.935-2.424h-.034A2.979,2.979,0,0,0,1487.423-675.768Zm50.444,4.557a3.308,3.308,0,0,1-1.194-1.186,3.486,3.486,0,0,1-.392-1.668h2.781a1.323,1.323,0,0,0,.512,1.118,2.76,2.76,0,0,0,1.724.413,2.057,2.057,0,0,0,1.365-.378.871.871,0,0,0,.341-.688c0-.43-.546-.774-1.638-1.015a18.728,18.728,0,0,1-3.072-.842,2.581,2.581,0,0,1-1.655-2.459,3.237,3.237,0,0,1,.87-2.287,4.248,4.248,0,0,1,3.276-1.169,6.724,6.724,0,0,1,2.884.516.532.532,0,0,1,.171.086,2.9,2.9,0,0,1,1.178,1.135,3.461,3.461,0,0,1,.392,1.685h-2.645a1.81,1.81,0,0,0-.393-.928,2.042,2.042,0,0,0-1.433-.43,2.123,2.123,0,0,0-1.365.327.885.885,0,0,0-.29.688c0,.413.546.739,1.655.98a27.912,27.912,0,0,1,2.73.7c.136.069.273.1.358.155a2.571,2.571,0,0,1,1.672,2.407,3.084,3.084,0,0,1-1.638,2.906,3.056,3.056,0,0,1-.409.206,6,6,0,0,1-2.44.464A6.752,6.752,0,0,1,1537.867-671.211Zm-28.959.6v-10.626h2.713v10.626Zm0-11.435v-2.407h2.713v2.407Zm34.744-.464a1.454,1.454,0,0,1-.785-.206,1.506,1.506,0,0,1-.6-.585,1.656,1.656,0,0,1-.2-.791,1.541,1.541,0,0,1,.2-.808,1.506,1.506,0,0,1,.6-.585,1.768,1.768,0,0,1,.768-.206h.017a1.623,1.623,0,0,1,.785.206,1.4,1.4,0,0,1,.6.585,1.671,1.671,0,0,1,.2.808,1.482,1.482,0,0,1-.2.791,1.365,1.365,0,0,1-.58.585,1.624,1.624,0,0,1-.785.206Zm-.631-2.768a1.381,1.381,0,0,0-.5.5,1.428,1.428,0,0,0-.188.671,1.326,1.326,0,0,0,.188.671,1.29,1.29,0,0,0,.478.481,1.372,1.372,0,0,0,.666.172h.017a1.282,1.282,0,0,0,.666-.172,1.175,1.175,0,0,0,.478-.481,1.4,1.4,0,0,0,.171-.671,1.308,1.308,0,0,0-.171-.671,1.379,1.379,0,0,0-.495-.5,1.461,1.461,0,0,0-.648-.172h-.017A1.461,1.461,0,0,0,1543.021-685.277Zm1.058,2.063-.154-.275a2.01,2.01,0,0,0-.256-.361c0-.017-.017-.017-.034-.034l-.222-.069h-.188v.739h-.273v-1.737h.6c.034,0,.068.017.1.017a.8.8,0,0,1,.324.052.436.436,0,0,1,.222.172.412.412,0,0,1,.085.241.472.472,0,0,1-.136.327.5.5,0,0,1-.358.155.33.33,0,0,1,.154.086l.256.344.2.344Zm-.836-.98h.427a.307.307,0,0,0,.239-.069.277.277,0,0,0,.085-.189.186.186,0,0,0-.034-.138.3.3,0,0,0-.12-.086.957.957,0,0,0-.171-.034h-.427Zm-13.532-.327h-4.539L1518-696.539l-5.427-9.1,5.427-3.3,3.413-2.063,8.293,13.893,7.509,12.586Zm-11.706,0h-9.1l-6.689-11.194-.29-.5.29-.172,8.567-5.193L1518-689.472l2.935,4.952Zm-15.785,0h-9.59l-1.348-2.27,8.857-5.347,2.082,3.49,2.457,4.127Z" transform="translate(-1485 711)"/>
</svg>
