<svg xmlns="http://www.w3.org/2000/svg" width="100.324" height="17.631" viewBox="0 0 100.324 17.631">
  <g id="logo_text" data-name="logo text" transform="translate(-470.658 -176.183)">
    <path id="Path_141" data-name="Path 141" d="M470.658,189.625,474,187.687a3.551,3.551,0,0,0,3.56,2.349c1.841,0,2.3-.727,2.3-1.381,0-1.042-.969-1.453-3.512-2.156-2.518-.7-4.989-1.913-4.989-5.159,0-3.27,2.761-5.159,5.692-5.159a6.576,6.576,0,0,1,6.2,3.827l-3.269,1.913a2.971,2.971,0,0,0-2.931-1.962c-1.211,0-1.816.605-1.816,1.284,0,.775.412,1.308,3.051,2.107,2.567.775,5.449,1.671,5.449,5.255,0,3.27-2.616,5.207-6.3,5.207C473.879,193.814,471.6,192.119,470.658,189.625Z" transform="translate(0)" fill="#fff"/>
    <path id="Path_142" data-name="Path 142" d="M583.678,178.453v16.953h-2.906l-6.539-9.2v9.2h-3.875V178.453h2.906l6.539,9.2v-9.2Z" transform="translate(-84.806 -1.931)" fill="#fff"/>
    <path id="Path_143" data-name="Path 143" d="M672.644,195.406l5.958-8.695-5.716-8.259h4.408l5.183,7.362v-7.362h3.875v16.953h-3.875v-7.847l-5.425,7.847Z" transform="translate(-171.811 -1.931)" fill="#fff"/>
    <path id="Path_144" data-name="Path 144" d="M786.174,189.836h-1.841v5.57h-3.875V178.453h6.781a5.8,5.8,0,0,1,5.813,5.813,5.587,5.587,0,0,1-3.124,4.916l3.609,6.224h-4.166Zm-1.841-3.391h2.906a2.195,2.195,0,0,0,0-4.359h-2.906Z" transform="translate(-263.518 -1.931)" fill="#fff"/>
    <path id="Path_145" data-name="Path 145" d="M896.683,184.482a5.826,5.826,0,0,1-5.934,5.813h-2.543v5.328h-3.875V178.669h6.418A5.826,5.826,0,0,1,896.683,184.482Zm-3.875,0a2.072,2.072,0,0,0-2.059-2.18h-2.543v4.359h2.543A2.072,2.072,0,0,0,892.809,184.482Z" transform="translate(-351.874 -2.115)" fill="#afafaf"/>
    <path id="Path_146" data-name="Path 146" d="M983.853,178.669v16.953h-3.875V178.669Z" transform="translate(-433.232 -2.115)" fill="#afafaf"/>
    <path id="Path_147" data-name="Path 147" d="M1029.86,182.4H1025.5v13.224h-3.875V182.4h-4.359v-3.73h12.594Z" transform="translate(-464.949 -2.115)" fill="#afafaf"/>
    <g id="Group_31" data-name="Group 31" transform="translate(566.914 176.192)">
      <path id="Path_149" data-name="Path 149" d="M1111.785,180.358a1.908,1.908,0,0,1,.448-.622,2.018,2.018,0,0,1,.649-.4,2.187,2.187,0,0,1,1.541,0,2.019,2.019,0,0,1,.649.4,1.907,1.907,0,0,1,.448.622,1.956,1.956,0,0,1-1.1,2.659,2.224,2.224,0,0,1-1.541,0,2,2,0,0,1-1.1-2.659Zm.49,1.441a1.545,1.545,0,0,0,.318.5,1.427,1.427,0,0,0,.474.326,1.515,1.515,0,0,0,1.166,0,1.429,1.429,0,0,0,.474-.326,1.581,1.581,0,0,0,.32-.5,1.609,1.609,0,0,0,.119-.625,1.588,1.588,0,0,0-.119-.622,1.56,1.56,0,0,0-.32-.49,1.466,1.466,0,0,0-1.054-.44,1.475,1.475,0,0,0-.585.117,1.45,1.45,0,0,0-.474.323,1.524,1.524,0,0,0-.318.49,1.619,1.619,0,0,0-.116.622A1.64,1.64,0,0,0,1112.275,181.8Zm1.425-1.737a1.168,1.168,0,0,1,.643.148.563.563,0,0,1,.225.509.683.683,0,0,1-.045.262.466.466,0,0,1-.124.177.563.563,0,0,1-.186.106.92.92,0,0,1-.228.048l.594.969h-.461l-.54-.948h-.276v.948h-.44v-2.219Zm-.005.927a.79.79,0,0,0,.313-.053q.122-.053.122-.254a.222.222,0,0,0-.042-.143.284.284,0,0,0-.109-.082.548.548,0,0,0-.148-.04,1.208,1.208,0,0,0-.156-.011h-.371v.583Z" transform="translate(-1111.618 -179.198)" fill="#fff"/>
    </g>
  </g>
</svg>
