<svg xmlns="http://www.w3.org/2000/svg" width="53" height="49.411" viewBox="0 0 53 49.411">
  <path id="Path_34" data-name="Path 34" d="M28.708,3.332c-.015-.106-.03-.227-.045-.332a2.84,2.84,0,1,1,5.665-.408A2.851,2.851,0,0,1,31.7,5.628a1.818,1.818,0,0,1-.287,0,.288.288,0,0,0-.151.076c-.166.257.408.212.015,1.3a.775.775,0,0,1-.045.242c-.03.423-.2,1.662-.211,2.327.076.091.106.136.091.378a13.257,13.257,0,0,1-.227,1.586.862.862,0,0,1-.408.6,10.208,10.208,0,0,1-.755,2.674,3.409,3.409,0,0,1-.272,1.42,6,6,0,0,1-.74,3.263,4.616,4.616,0,0,0,.211,2.417c.227.937.846,1.345.937,2.3a14.631,14.631,0,0,1-.317,5.6l.423,1.012c.529.242,1.843.906,1.118,1.949a18.311,18.311,0,0,1,3.852,2.206,13.57,13.57,0,0,1,1.541,1.435,2.657,2.657,0,0,1,1.511.634,55.011,55.011,0,0,1,7.131,5.439c.317.181.453.317.71.468.045.076.045.091.045.121-.091.227-.091.227-.166.408.106.106.287.211.408.317.106.03.106-.015.287-.06a1.473,1.473,0,0,0,.635.393c.317-.076.272-.015.529-.317.091-.106.257,0,.257,0a2.476,2.476,0,0,1,.6-.529,1.812,1.812,0,0,1,.68-.151c.151,0,.121.151.106.2a5,5,0,0,0-.725.332,5.726,5.726,0,0,0-.77,1.058c.876-.121,1.4.091,2.13.015a1.731,1.731,0,0,0,1.1-.3A5.225,5.225,0,0,1,51.7,44a.937.937,0,0,1,.982.151c.211.242.347.242.015.589-.121.136-.287.287-.514.5-.393.378-.906.891-1.435,1.314a9.62,9.62,0,0,1-1.541.982A10.156,10.156,0,0,0,47.7,48.744a2.975,2.975,0,0,1-.483.317c-.3.2-.393.03-.589-.332,0,0-.091-.136-.242-.423a1.654,1.654,0,0,1-.242-.665,3.278,3.278,0,0,1-1-1.178,3.524,3.524,0,0,1-.937-.891l-.65-.529c-.74.151-.922-.3-2.885-1.707a1.96,1.96,0,0,1-1.073-.5c-.891-.71-3.021-2.327-3.384-2.508a6.148,6.148,0,0,1-1.133-.619c-.423-.076-.665-.121-.876-.181a5.457,5.457,0,0,0-.967-.211,8.782,8.782,0,0,1-2.719-.922c-.423-.2-.786-.3-1.148-.453a14.147,14.147,0,0,0-2.039-.77,6.4,6.4,0,0,1-1.692-.619,3.72,3.72,0,0,0-.393-.212.831.831,0,0,0-.559.091c-.65.347-1.269.635-1.843.937-.529.287-1.012.574-1.526.876-.468.272-1,.529-1.556.786,0,0-1.571.786-2.432,1.1a28.99,28.99,0,0,1-3.2,2.191,19.753,19.753,0,0,1-1.768.906c-.242.2-1.073.786-1.737,1.284-.514.378-.891.695-.891.695-.3.272-.272.393-.831.151-.151.121-.272.212-.378.287-.408.287-.438.227-.589.211-.287.242-.317.121-.559.393-.166.257,0,.2-.332.317-.076.03-.106.121-.166.166-.272.227-.272.861-.937.906-.378.272-.287.6-.574.589.015.287-.514.695-.619.695-.846.287-.891-.332-1.9.136a2.039,2.039,0,0,1-.574.272,1.722,1.722,0,0,1-1.314-.257,5.047,5.047,0,0,1-.982-1.163c-.166-.393-.076-.635.438-1,.212-.136.257-.242.6-.257.181-.06.136.03.453-.076.181-.06.181-.015.559-.045a2.331,2.331,0,0,1,.363-.136c.287-.091.574-.211.574-.211s.076-.076.363-.045c.242-.091.483-.242.6-.287-.03-.378.015-.363.181-.514.212-.181.257-.151.423-.045.076-.045.106-.06.091-.106-.03-.2-.2-.287-.151-.725a1.345,1.345,0,0,1-.166-.514.358.358,0,0,1,.151-.257c.091-.045.121.015.166.076a1.206,1.206,0,0,1,.151.393c.03.332.136.77.468.529.2-.2.227-.725.635-.619l.287.242A2.035,2.035,0,0,1,6.561,44s-.227-.227-.03-.408a4.379,4.379,0,0,0,.589-.529,16.911,16.911,0,0,1,2.07-1.979,19.423,19.423,0,0,1,4.925-2.9,2.129,2.129,0,0,1,1.707-.937,12.664,12.664,0,0,1,3.6-3.671c.378-.695.544-.619,1.042-.755.393-.317.483-.317.665-.65.166-.68-.393-2.523,1.058-2.614a5.394,5.394,0,0,1,.574-.74,6.487,6.487,0,0,1-.393-1.465c-.015-.045-.574-.453-.423-.967a7.32,7.32,0,0,1-.831-1.269c-.06,0-.121-.03-.181-.03-.076-.015-.166,0-.272-.015a1.022,1.022,0,0,1-.876.755,6.138,6.138,0,0,1-3.006,3.46,4.76,4.76,0,0,0-1.058,1.9,1.425,1.425,0,0,0-.015.937c-.106.332-.076.363-.076.363a.593.593,0,0,0,.3.332c.242.06.483.06.468.332-.03.347-.483.287-.695.242-.816-.136-.559-.665-1.073-.483-.393.257-.544,1.027-1.193.937-.091-.06-.06-.227,0-.347.091-.2.257-.347.151-.423l-1.269.408c-.393.106-.831-.091-.438-.347a5.229,5.229,0,0,0,.77-.363s.166-.227-.151-.106a3.379,3.379,0,0,1-1.224.166,6.468,6.468,0,0,1-.861-.166c-.106-.06-.181-.3.045-.287a8.425,8.425,0,0,0,1.647-.242c.287-.106.816-.423,1.118-.574a2.575,2.575,0,0,1,.514-.574,11.327,11.327,0,0,0,.816-.906,15.737,15.737,0,0,1,1.39-2.7,12.62,12.62,0,0,1,1.511-1.949,3.25,3.25,0,0,1,.967-1.722,14.984,14.984,0,0,1,.71-1.375c.106-.181.2-.332.3-.5.257-.393.514-1.133,1.5-1.239a2.966,2.966,0,0,0,.574-.529c.257-.212.2-.544.393-.786-.317-.3-1.1-.876-1.193-1.677a2.5,2.5,0,0,1,.725-2.055,2.372,2.372,0,0,1,1.888-.8,1.852,1.852,0,0,1,1.36.725c.272.287.378.106.5.423.755.2.71.106.71.665a.848.848,0,0,1,.3.635,2.779,2.779,0,0,1,.982-1.209c.166-.468.272-.937.408-1.4.136-.438.3-.891.423-1.224-.136-.952.136-1.118.514-1.949-.06-.121-.045-.151-.03-.332.151-.559.378-1.284.5-1.768a.28.28,0,0,1,.242-.212c.166-.6.423-1.737.468-1.964a1.458,1.458,0,0,0-.076-1.193,3.949,3.949,0,0,0-.091-.408,12.435,12.435,0,0,1-.589-1.193A7.2,7.2,0,0,1,28.678,3.3c-.091-.393.03.03.03.03" transform="translate(0.101 0.044)"/>
</svg>
