<svg xmlns="http://www.w3.org/2000/svg" width="61.821" height="22.248" viewBox="0 0 61.821 22.248">
  <path id="Path_33" data-name="Path 33" d="M7.934.988C3.906,5.708.041,11.567,0,15.961a5.318,5.318,0,0,0,1.79,4.191,8.532,8.532,0,0,0,5.818,2.116c2.889,0,5.778-1.18,8.056-2.075C19.489,18.687,61.56.378,61.56.378c.407-.2.326-.448-.163-.325-.244.041-45.855,12.41-45.855,12.41a10.1,10.1,0,0,1-2.645.366c-3.5.041-6.632-1.912-6.591-6.022A12.8,12.8,0,0,1,7.934.988Z" transform="translate(0 -0.02)" fill="#231f20" fill-rule="evenodd"/>
</svg>
