<svg xmlns="http://www.w3.org/2000/svg" width="7" height="6.999" viewBox="0 0 7 6.999">
  <path id="Path_73" data-name="Path 73" d="M3.2,5,1.686,3.729l.466-.552.964.816,1.7-2.021.552.466Zm3.7-1.05a1.166,1.166,0,0,1,0-.886l.039-.093a1.17,1.17,0,0,0-.63-1.524l-.086-.039A1.138,1.138,0,0,1,5.6.782L5.566.7A1.185,1.185,0,0,0,4.034.075L3.956.106a1.186,1.186,0,0,1-.894,0L2.992.075A1.174,1.174,0,0,0,1.476.712L1.445.774a1.138,1.138,0,0,1-.63.63l-.07.031A1.173,1.173,0,0,0,.123,2.959l.031.07a1.166,1.166,0,0,1,0,.886L.123,4a1.152,1.152,0,0,0,.63,1.516l.078.031a1.138,1.138,0,0,1,.63.63l.039.086A1.162,1.162,0,0,0,3.016,6.9L3.1,6.862a1.186,1.186,0,0,1,.894,0l.07.031a1.17,1.17,0,0,0,1.524-.63L5.62,6.2a1.138,1.138,0,0,1,.63-.63l.062-.023a1.16,1.16,0,0,0,.63-1.524Z" transform="translate(-0.033 0.012)" fill="#35b75f"/>
</svg>
